#N canvas 592 171 450 300 12;
#X floatatom 147 50 5 0 0 0 - - -;
#X floatatom 249 50 5 0 0 0 - - -;
#X obj 197 81 /;
#X floatatom 196 170 5 0 0 0 - - -;
#X obj 195 122 * 100;
#X connect 0 0 2 0;
#X connect 1 0 2 1;
#X connect 2 0 4 0;
#X connect 4 0 3 0;
