#N canvas 266 134 763 660 12;
#X obj 301 383 dac~;
#X obj 305 151 mtof;
#X obj 307 198 osc~;
#X obj 363 127 / 127;
#X symbolatom 480 95 10 0 0 0 - - -;
#X obj 366 174 pack 0 50;
#X obj 305 39 notein 1;
#X obj 368 213 line~;
#X obj 304 296 *~;
#X connect 1 0 2 0;
#X connect 2 0 8 0;
#X connect 3 0 5 0;
#X connect 4 0 5 1;
#X connect 5 0 7 0;
#X connect 6 0 1 0;
#X connect 6 1 3 0;
#X connect 7 0 8 1;
#X connect 8 0 0 0;
#X connect 8 0 0 1;
