#N canvas 0 25 450 300 12;
#X obj 180 37 tgl 15 0 empty empty empty 17 7 0 10 -262144 -1 -1 1
1;
#X obj 193 138 osc~;
#X obj 228 241 dac~;
#X floatatom 204 80 5 0 0 0 - - -;
#X connect 0 0 3 0;
#X connect 1 0 2 0;
#X connect 1 0 2 1;
#X connect 3 0 1 0;
