#N canvas 392 135 450 300 12;
#X obj 52 121 readsf~ 2;
#X obj 79 223 dac~;
#X obj 193 134 bng 15 250 50 0 empty empty empty 17 7 0 10 -262144
-1 -1;
#X msg 76 52 start;
#X msg 136 52 stop;
#X obj 52 157 *~ 0.7;
#X obj 104 157 *~ 0.7;
#X msg 50 18 open screech-owl.wav;
#X connect 0 0 5 0;
#X connect 0 1 6 0;
#X connect 0 2 2 0;
#X connect 3 0 0 0;
#X connect 4 0 0 0;
#X connect 5 0 1 0;
#X connect 6 0 1 1;
#X connect 7 0 0 0;
